<?xml version="1.0" encoding="UTF-8"?>
<svg xmlns="http://www.w3.org/2000/svg" xmlns:xlink="http://www.w3.org/1999/xlink" viewBox="0 0 192 192" width="192px" height="192px">
<g id="surface43081106">
<path style=" stroke:none;fill-rule:nonzero;fill:rgb(90.588236%,29.803923%,23.529412%);fill-opacity:1;" d="M 80 16 L 72 24 L 32 24 L 32 40 L 40 40 L 40 160 C 40 164.179688 41.53125 168.4375 44.546875 171.453125 C 47.5625 174.46875 51.820312 176 56 176 L 136 176 C 140.179688 176 144.4375 174.46875 147.453125 171.453125 C 150.46875 168.4375 152 164.179688 152 160 L 152 40 L 160 40 L 160 24 L 120 24 L 112 16 Z M 56 40 L 136 40 L 136 160 L 56 160 Z M 72 56 L 72 144 L 88 144 L 88 56 Z M 104 56 L 104 144 L 120 144 L 120 56 Z M 104 56 "/>
</g>
</svg>
